# Alias OBJ Model File
# Exported from SketchUp, (c) 2000-2012 Trimble Navigation Limited
# File units = inches

mtllib Court.mtl

g Mesh1 Component_1_1 Component_7_1 Model

usemtl FrontColor
v -65.1643 -41.8206 1237.91
vt 0 616
vn 0 -1 -0
v -598.636 -41.8206 1545.91
vt 0 0
v -328.144 -41.8206 782.417
vt -525.959 616
f 1/1/1 2/2/1 3/3/1

usemtl M_2
vt -15.4045 -4.79221
vn 0.5 0 0.866025
v -65.1643 1247.18 1237.91
vt -15.4045 6.65973
vt -1.26655 -4.79221
f 1/4/2 4/5/2 2/6/2

vt 29.3952 -4.79221
vn 0.866025 0 -0.5
vt 17.3238 -4.79221
vt 29.3952 6.65973
f 1/7/3 3/8/3 4/9/3

v -328.144 1055.33 782.417
vt 17.3238 4.95528
f 5/10/3 4/9/3 3/8/3

usemtl Stone_Pavers_Flagstone_Gray
v -598.636 1247.18 1545.91
vt 0 4.60112
vn -0.171337 0.939454 -0.296765
vt 8.55556 4.60112
vt 8.55556 -1.23072
f 6/11/4 4/12/4 5/13/4

usemtl M_2
vt -1.26655 6.65973
f 6/14/2 2/6/2 4/5/2

vn -0.942593 2.66829e-017 -0.333944
f 2/6/5 6/14/5 3/8/5

f 5/10/5 3/8/5 6/14/5

g Mesh2 Component_4_1 Component_7_1 Model

v 300.602 642.679 55.5856
vt 1.39109 6.08134
vn 0.972098 0 0.234575
v 220.215 -41.8206 388.717
vt -6.47415 0
v 300.602 -41.8206 55.5856
vt 1.39109 0
f 7/15/6 8/16/6 9/17/6

v 220.215 642.679 388.717
vt -6.47415 6.08134
f 8/16/6 7/15/6 10/18/6

usemtl Stone_Pavers_Flagstone_Gray
vt 12.1678 10.5104
vn 0 1 -0
v -405.318 642.679 487.046
vt 12.4553 1.89502
vt 15.6165 8.05014
f 7/19/7 11/20/7 10/21/7

v -584.035 642.679 194.644
vt 7.69714 1.80572
f 7/19/7 12/22/7 11/20/7

v 121.885 642.679 -236.816
vt 7.4097 10.4211
f 13/23/7 12/22/7 7/19/7

v -503.648 642.679 -138.487
vt 4.24844 4.26596
f 13/23/7 14/24/7 12/22/7

v -211.246 642.679 -317.204
vt 4.12938 7.83456
f 14/24/7 13/23/7 15/25/7

usemtl M_2
vt -25.0758 6.08134
vn 0.234575 0 -0.972098
v -211.246 -41.8206 -317.204
vt -17.2106 0
vt -17.2106 6.08134
f 13/26/8 16/27/8 15/28/8

v 121.885 -41.8206 -236.816
vt -25.0758 0
f 16/27/8 13/26/8 17/29/8

vt -12.815 6.08134
vn 0.853247 0 -0.521507
vt -20.6802 0
vt -12.815 0
f 13/30/9 9/31/9 17/32/9

vt -20.6802 6.08134
f 9/31/9 13/30/9 7/33/9

v -316.669 -41.8206 -252.769
vt -14.2502 4.14832e-017
vn -0.521507 1.47744e-017 -0.853247
vt -17.086 6.08134
vt -17.086 4.14832e-017
f 18/34/10 15/35/10 16/36/10

v -316.669 168.429 -252.769
vt -14.2502 1.86794
f 19/37/10 15/35/10 18/34/10

v -391.541 168.429 -207.007
vt -12.2363 1.86794
f 20/38/10 15/35/10 19/37/10

v -503.648 -41.8206 -138.487
vt -9.22073 4.14832e-017
f 21/39/10 15/35/10 20/38/10

vt -9.22073 6.08134
f 15/35/10 21/39/10 14/40/10

vt -1.39109 0
vn -0.972098 0 -0.234575
vt 6.47415 6.08134
vt -1.39109 6.08134
f 21/41/11 12/42/11 14/43/11

v -584.035 -41.8206 194.644
vt 6.47415 0
f 12/42/11 21/41/11 22/44/11

vt 12.815 3.89302e-017
vn -0.853247 2.74843e-017 0.521507
v -524.713 208.429 291.703
vt 15.4258 2.22331
vt 12.815 6.08134
f 22/45/12 23/46/12 12/47/12

v -524.713 -41.8206 291.703
vt 15.4258 3.89302e-017
f 23/46/12 22/45/12 24/48/12

v -675.097 -41.8206 383.619
vt 0.385995 0
vn -0.521507 0 -0.853247
vt -3.65916 2.22331
vt -3.65916 0
f 25/49/13 23/50/13 24/51/13

v -675.097 208.429 383.619
vt 0.385995 2.22331
f 23/50/13 25/49/13 26/52/13

vt 15.4306 0
v -462.523 208.429 393.453
vt 18.0655 1.59188
vt 15.3294 1.56538
f 26/53/7 27/54/7 23/55/7

v -612.908 208.429 485.369
vt 18.1667 0.0265023
f 27/54/7 26/53/7 28/56/7

vt -0.385995 2.22331
vn 0.521507 0 0.853247
v -462.523 -41.8206 393.453
vt 3.65916 0
vt 3.65916 2.22331
f 28/57/14 29/58/14 27/59/14

v -612.908 -41.8206 485.369
vt -0.385995 0
f 29/58/14 28/57/14 30/60/14

vt 18.1627 3.89302e-017
vt 20.6802 6.08134
vt 18.1627 2.22331
f 29/61/12 11/62/12 27/63/12

v -405.318 -41.8206 487.046
vt 20.6802 3.89302e-017
f 11/62/12 29/61/12 31/64/12

v -72.1872 -41.8206 567.434
vt 25.0758 0
vn -0.234575 0 0.972098
vt 17.2106 6.08134
vt 17.2106 0
f 32/65/15 11/66/15 31/67/15

v -72.1872 642.679 567.434
vt 25.0758 6.08134
f 11/66/15 32/65/15 33/68/15

v 30.8032 -41.8206 504.486
vt 11.991 -3.86462e-017
vn 0.521507 3.80446e-018 0.853247
vt 9.22073 6.08134
vt 9.22073 -3.86462e-017
f 34/69/16 33/70/16 32/71/16

v 30.8032 189.679 504.486
vt 11.991 2.05673
f 33/70/16 34/69/16 35/72/16

vt 26.2418 0
vn -0.853247 0 0.521507
v 147.23 189.679 694.973
vt 31.3657 2.05673
vt 26.2418 2.05673
f 34/73/17 36/74/17 35/75/17

v 147.23 -41.8206 694.973
vt 31.3657 0
f 36/74/17 34/73/17 37/76/17

v 238.74 189.679 639.041
vt 30.9943 5.89651
vt 25.9336 4.89434
vt 31.0559 4.94396
f 38/77/7 35/78/7 36/79/7

v 122.314 189.679 448.554
vt 25.8721 5.84689
f 35/78/7 38/77/7 39/80/7

v 238.74 -41.8206 639.041
vt -31.3657 0
vt -26.2418 2.05673
vt -31.3657 2.05673
f 40/81/9 39/82/9 38/83/9

v 122.314 -41.8206 448.554
vt -26.2418 0
f 39/82/9 40/81/9 41/84/9

vt 17.086 -3.86462e-017
vt 14.4526 2.05673
vt 14.4526 -3.86462e-017
f 8/85/16 39/86/16 41/87/16

vt 17.086 6.08134
f 10/88/16 39/86/16 8/85/16

f 10/88/16 35/72/16 39/86/16

f 33/70/16 35/72/16 10/88/16

usemtl Stone_Pavers_Flagstone_Gray
vt 15.7356 4.48154
f 10/21/7 11/20/7 33/89/7

usemtl M_2
f 27/63/12 11/62/12 23/46/12

f 12/47/12 23/46/12 11/62/12

v -391.541 -41.8206 -207.007
vt -12.2363 4.14832e-017
f 42/90/10 21/39/10 20/38/10

vt 7.25343 1.86794
v -548.254 -41.8206 -463.407
vt 0.35658 0
vt 7.25343 0
f 20/91/17 43/92/17 42/93/17

v -548.254 168.429 -463.407
vt 0.35658 1.86794
f 43/92/17 20/91/17 44/94/17

vt 6.8947 5.58473
vt 0.0503794 4.73859
vt 6.94507 4.80537
f 19/95/7 44/96/7 20/97/7

v -473.382 168.429 -509.17
vt 0 5.51794
f 44/96/7 19/95/7 45/98/7

vt -7.25343 0
vt -0.35658 1.86794
vt -7.25343 1.86794
f 18/99/9 45/100/9 19/101/9

v -473.382 -41.8206 -509.17
vt -0.35658 0
f 45/100/9 18/99/9 46/102/9

g Mesh3 Component_5_1 Component_7_1 Model

v -788.985 -41.8206 1119.12
vn -0.5 0 -0.866025
v -788.985 256.429 1119.12
vt 0 2.64976
v -297.557 -41.8206 835.395
vt 13.0237 0
f 47/2/18 48/103/18 49/104/18

usemtl M_10
vt 4.26153 -0.994959
vn -0.866025 0 0.5
v -563.091 -41.8206 1510.38
vt -1.52225 -0.994959
vt 4.26153 0.00504102
f 47/105/19 50/106/19 48/107/19

usemtl FrontColor
vt -451.788 0
v -71.6628 -41.8206 1226.66
vt -1.13687e-013 567.452
f 50/2/1 47/108/1 51/109/1

vt -451.788 567.452
f 49/110/1 51/109/1 47/108/1

usemtl M_10
v -563.091 256.429 1510.38
vt -1.52225 0.00504102
f 52/111/19 48/107/19 50/106/19

usemtl Stone_Pavers_Flagstone_Gray
v -71.6628 256.429 1226.66
vt 1.57898e-015 5.91096
vt 6.27484 0
f 52/2/7 53/112/7 48/113/7

v -297.557 256.429 835.395
vt 6.27484 5.91096
f 54/114/7 48/113/7 53/112/7

usemtl M_2
vt 13.0237 2.64976
f 54/115/18 49/104/18 48/103/18

g Mesh4 Component_3_1 Component_7_1 Model

v -401.06 -41.8206 890.089
vt 28.364 -4.79221
v -742.958 927.179 1087.48
vt 19.3031 3.81673
v -742.958 -41.8206 1087.48
vt 19.3031 -4.79221
f 55/116/2 56/117/2 57/118/2

v -401.06 927.179 890.089
vt 28.364 3.81673
f 56/117/2 55/116/2 58/119/2

usemtl FrontColor
v -351.182 -41.8206 746.059
vt -236.631 0
vn 0.944942 0 0.327237
vt -389.053 969
vt -389.053 0
f 59/120/20 58/121/20 55/122/20

v -351.182 927.179 746.059
vt -236.631 969
f 58/121/20 59/120/20 60/123/20

usemtl M_2
vt 33.2987 -4.79221
v -777.1 927.179 8.34813
vt 52.8494 3.81673
vt 33.2987 3.81673
f 59/124/3 61/125/3 60/126/3

v -777.1 -41.8206 8.34813
vt 52.8494 -4.79221
f 61/125/3 59/124/3 62/127/3

usemtl FrontColor
v -864.445 -41.8206 356.562
vt -356.26 260.25
vt -98.3701 510
vt -950.206 510
f 63/128/1 62/129/1 59/130/1

v -1141.57 -41.8206 234.037
vt -111.587 81.5147
f 64/131/1 62/129/1 63/128/1

v -1267.96 -41.8206 178.157
f 65/2/1 62/129/1 64/131/1

v -926.06 -41.8206 -19.2376
vt 1.13687e-013 394.79
f 62/129/1 65/2/1 66/132/1

usemtl M_2
vt 81.3602 -4.79221
v -926.06 927.179 -19.2376
vt 72.2993 3.81673
vt 72.2993 -4.79221
f 65/133/18 67/134/18 66/135/18

v -1267.96 927.179 178.157
vt 81.3602 3.81673
f 67/134/18 65/133/18 68/136/18

usemtl M_1
vt -4.99945 8.24182
vn -0.40437 5.25126e-017 0.914596
v -1141.57 239.679 234.037
vt -5.31267 0.0429602
vt -4.99945 -19.9809
f 65/137/21 69/138/21 68/139/21

vt -5.31267 8.24182
f 69/138/21 65/137/21 64/140/21

vn -0.40437 0 0.914596
v -864.445 239.679 356.562
vt -5.99945 0.0429604
f 64/140/22 70/141/22 69/138/22

vt -5.99945 8.24182
f 70/141/22 64/140/22 63/142/22

usemtl FrontColor
v -1019.23 -41.8206 445.93
vt -356.26 81.5147
f 63/128/1 71/143/1 64/131/1

v -850.494 -41.8206 738.197
vt -693.74 81.5147
f 71/143/1 63/128/1 72/144/1

v -695.705 -41.8206 648.829
vt -693.74 260.25
f 72/144/1 63/128/1 73/145/1

f 63/128/1 59/130/1 73/145/1

v -728.157 -41.8206 950.09
vt -938.413 81.5147
f 73/145/1 59/130/1 74/146/1

vt -1050 0
f 74/146/1 59/130/1 57/147/1

vt -1050 394.79
f 57/147/1 59/130/1 55/148/1

usemtl M_1
vt 1 15.9561
vn -0.994248 2.42366e-017 -0.107104
vt 0.686783 -12.2666
vt 1 -12.2666
f 56/149/23 74/150/23 57/151/23

v -728.157 239.679 950.09
vt 0.686783 -4.06773
f 74/150/23 56/149/23 75/152/23

v -695.705 239.679 648.829
vt 4.44089e-016 -4.06773
f 75/152/23 56/149/23 76/153/23

v -695.705 570.92 648.829
vt 4.44089e-016 5.57984
f 76/153/23 56/149/23 77/154/23

vt -0.9708 -4.80926
vn -0.699309 -0.589878 0.403746
v -864.445 570.92 356.562
vt -1.98279 15.2976
vt -1.97694 5.46853
f 56/155/24 78/156/24 77/157/24

vt -0.988983 25.7717
f 78/156/24 56/155/24 68/158/24

usemtl Stone_Pavers_Flagstone_Gray
vt 1.36625 5.3125
vt 14.5833 0
f 61/159/7 68/2/7 56/160/7

vt -1.57898e-015 4.11239
f 68/2/7 61/159/7 67/161/7

usemtl FrontColor
vt -451.731 969
vn 0.182093 0 -0.983281
vt -300.238 0
vt -300.238 969
f 61/162/25 66/163/25 67/164/25

vt -451.731 0
f 66/163/25 61/162/25 62/165/25

usemtl Stone_Pavers_Flagstone_Gray
vt 13.1973 5.3125
f 61/159/7 56/160/7 60/166/7

vt 14.5833 4.11239
f 60/166/7 56/160/7 58/167/7

usemtl M_1
vt -5.99945 -9.60462
f 68/139/21 69/138/21 78/168/21

f 78/168/21 69/138/21 70/141/21

usemtl Stone_Pavers_Flagstone_Gray
v -1019.23 239.679 445.93
vt 4.94805 0.849112
vt 4.94805 2.71094
vt 1.54981 0.849112
f 79/169/7 70/170/7 69/171/7

v -850.494 239.679 738.197
vt 9.63528 0.849112
f 70/170/7 79/169/7 80/172/7

usemtl M_33
v -850.494 570.92 738.197
vt 1 -2.22045e-016
vt -2.22045e-016 -0.569275
vt 1 -0.569275
f 81/173/19 79/174/19 80/175/19

v -1019.23 570.92 445.93
vt -2.22045e-016 0
f 79/174/19 81/173/19 82/176/19

usemtl M_43
vt -0.00511556 -0.00187819
vt 0.997299 0.486265
vt -0.00781658 0.484387
f 71/177/19 80/178/19 79/179/19

vt 1 -4.33681e-019
f 80/178/19 71/177/19 72/180/19

usemtl M_10
vt 13.1428 -0.994959
vt 16.275 -0.0511199
vt 13.1428 -0.0511199
f 72/181/19 75/182/19 80/183/19

vt 16.275 -0.994959
f 75/182/19 72/181/19 74/184/19

usemtl FrontColor
f 72/144/1 73/145/1 74/146/1

usemtl M_1
vn -0.994248 -3.52459e-016 -0.107104
vt 5.21805e-015 -12.2666
f 75/152/26 73/185/26 74/150/26

vt 5.21805e-015 -4.06773
f 73/185/26 75/152/26 76/186/26

usemtl Stone_Pavers_Flagstone_Gray
vt 9.63528 2.71094
vt 13.0335 0.849112
f 76/187/7 80/172/7 75/188/7

f 70/170/7 80/172/7 76/187/7

usemtl M_43
vt 1.01997 0.999057
vt 0.01803 0.424991
vt 1.02315 0.42687
f 77/189/19 70/190/19 76/191/19

vt 0.0148517 0.997179
f 70/190/19 77/189/19 78/192/19

usemtl FrontColor
vt 356.26 0
vt 693.74 281.5
vt 356.26 281.5
f 63/193/19 76/194/19 70/195/19

vt 693.74 0
f 76/194/19 63/193/19 73/196/19

usemtl M_10
vt 8.82234 -0.0511199
vt 5.69005 -0.994959
vt 8.82234 -0.994959
f 79/197/19 64/198/19 71/199/19

vt 5.69005 -0.0511199
f 64/198/19 79/197/19 69/200/19

g Mesh5 Component_2_1 Component_7_1 Model

usemtl FrontColor
v 49.36 -41.8206 -515.227
vt -717.709 975.75
v -696.933 -41.8206 -913.094
vt 0 528.375
v -309.494 -41.8206 -1136.78
vt 0 975.75
f 83/201/1 84/202/1 85/203/1

v -641.058 -41.8206 -816.315
vt -111.75 528.375
f 84/202/1 83/201/1 86/204/1

v -711.206 -41.8206 -775.815
vt -111.75 447.375
f 86/204/1 83/201/1 87/205/1

v -795.664 -41.8206 -27.3521
vt -717.709 0
f 88/206/1 87/205/1 83/201/1

v -1154.52 -41.8206 -648.906
f 89/2/1 87/205/1 88/206/1

v -767.081 -41.8206 -872.594
vt 0 447.375
f 87/205/1 89/2/1 90/207/1

usemtl M_3
vt 2.00443 0.026176
v -767.081 778.456 -872.594
vt 1.00443 9.66197
vt 1.00443 0.026176
f 89/208/18 91/209/18 90/210/18

v -1154.52 778.456 -648.906
vt 2.00443 9.66197
f 91/209/18 89/208/18 92/211/18

usemtl M_2
v -795.664 847.429 -27.3521
vt 16.4723 7.90042
vt 0 7.28763
f 89/2/19 93/212/19 92/213/19

vt 16.4723 0
f 93/212/19 89/2/19 88/214/19

vt 22.3947 0
vt 0 7.90042
f 83/215/2 93/216/2 88/2/2

v 49.36 847.429 -515.227
vt 22.3947 7.90042
f 93/216/2 83/215/2 94/217/2

vt -16.4723 0
v -309.494 778.456 -1136.78
vt -16.4723 7.90042
f 83/218/3 95/213/3 94/219/3

f 95/213/3 83/218/3 85/2/3

usemtl M_3
vt 1 -5.22301
vt 0 4.41278
vt 0 -5.22301
f 84/220/18 95/221/18 85/222/18

v -696.933 778.456 -913.094
vt 1 4.41278
f 95/221/18 84/220/18 96/223/18

usemtl M_2
v -641.058 847.429 -816.315
vt 2.5648 7.90042
f 84/2/19 97/224/19 96/213/19

vt 2.5648 0
f 97/224/19 84/2/19 86/225/19

vt -10.2678 0
vt -12.1269 7.90042
vt -12.1269 0
f 87/226/18 97/227/18 86/228/18

v -711.206 847.429 -775.815
vt -10.2678 7.90042
f 97/227/18 87/226/18 98/229/18

vt -2.5648 0
vt -2.5648 7.90042
f 87/230/3 91/213/3 98/231/3

f 91/213/3 87/230/3 90/2/3

v -767.081 847.429 -872.594
f 98/231/3 91/213/3 99/216/3

vt -10.2678 7.28763
f 92/213/18 99/229/18 91/232/18

v -1154.52 847.429 -648.906
f 99/229/18 92/213/18 100/216/18

f 92/213/19 93/212/19 100/216/19

usemtl Stone_Pavers_Flagstone_Gray
vt 9.96818 0
vt 0 4.66016
f 93/233/7 99/234/7 100/2/7

vt 1.55208 4.66016
f 99/234/7 93/233/7 98/235/7

vt 1.55208 5.50391
f 98/235/7 93/233/7 97/236/7

vt 9.96818 10.1641
f 94/237/7 97/236/7 93/233/7

v -309.494 847.429 -1136.78
vt 0 10.1641
f 101/238/7 97/236/7 94/237/7

v -696.933 847.429 -913.094
vt 0 5.50391
f 97/236/7 101/238/7 102/239/7

usemtl M_2
vt -22.3947 7.90042
vt -12.1269 7.28763
f 101/240/18 96/241/18 102/227/18

vt -22.3947 7.28763
f 96/241/18 101/240/18 95/242/18

f 94/219/3 95/213/3 101/216/3

f 96/213/19 97/224/19 102/216/19

g Mesh6 Component_1_2 Component_7_1 Model

usemtl FrontColor
v -795.664 -41.8206 -27.3521
v -1592.12 -41.8206 -174.846
v -1058.64 -41.8206 -482.846
f 103/3/1 104/2/1 105/1/1

usemtl M_2
vn -0.182093 2.66829e-017 0.983281
v -1592.12 1247.18 -174.846
f 103/8/27 106/14/27 104/6/27

v -795.664 1055.33 -27.3521
f 106/14/27 103/8/27 107/10/27

v -1058.64 1247.18 -482.846
f 103/8/3 108/9/3 107/10/3

f 108/9/3 103/8/3 105/7/3

f 104/6/18 108/5/18 105/4/18

f 108/5/18 104/6/18 106/14/18

usemtl Stone_Pavers_Flagstone_Gray
vn 0.171337 0.939454 0.296765
f 107/13/28 108/12/28 106/11/28

g Mesh7 Component_1_3 Component_7_1 Model

usemtl FrontColor
v 516.881 -41.8206 294.542
vn -0 -1 -0
v 1313.33 -41.8206 442.036
v 779.86 -41.8206 750.036
f 109/3/29 110/2/29 111/1/29

usemtl M_2
vn 0.182093 2.66829e-017 -0.983281
v 1313.33 1247.18 442.036
f 109/8/30 112/14/30 110/6/30

v 516.881 1055.33 294.542
f 112/14/30 109/8/30 113/10/30

v 779.86 1247.18 750.036
f 109/8/19 114/9/19 113/10/19

f 114/9/19 109/8/19 111/7/19

f 110/6/2 114/5/2 111/4/2

f 114/5/2 110/6/2 112/14/2

usemtl Stone_Pavers_Flagstone_Gray
f 113/13/4 114/12/4 112/11/4

g Mesh8 Component_5_2 Component_7_1 Model

usemtl M_2
v -824.75 -41.8206 -77.7293
v -1316.18 256.429 205.997
v -1316.18 -41.8206 205.997
f 115/104/2 116/103/2 117/2/2

v -824.75 256.429 -77.7293
f 116/103/2 115/104/2 118/115/2

usemtl Stone_Pavers_Flagstone_Gray
v -1050.64 256.429 -468.989
f 119/112/7 116/113/7 118/114/7

v -1542.07 256.429 -185.263
f 116/113/7 119/112/7 120/2/7

usemtl M_10
v -1542.07 -41.8206 -185.263
f 121/106/19 116/107/19 120/111/19

f 116/107/19 121/106/19 117/105/19

usemtl FrontColor
v -1050.64 -41.8206 -468.989
f 122/109/1 117/108/1 121/2/1

f 117/108/1 122/109/1 115/110/1

g Mesh9 Component_2_2 Component_7_1 Model

v 875.735 -41.8206 916.096
v 488.297 -41.8206 1139.78
v 516.881 -41.8206 294.542
f 123/203/1 124/202/1 125/201/1

usemtl M_3
v 875.735 778.456 916.096
f 123/222/2 126/221/2 124/220/2

usemtl M_2
f 123/2/3 125/218/3 126/213/3

v 516.881 847.429 294.542
f 127/219/3 126/213/3 125/218/3

v 875.735 847.429 916.096
f 128/216/3 126/213/3 127/219/3

v 488.297 778.456 1139.78
f 126/242/2 128/240/2 129/241/2

v 488.297 847.429 1139.78
f 130/227/2 129/241/2 128/240/2

v 432.422 847.429 1043.01
f 130/216/19 131/224/19 129/213/19

usemtl Stone_Pavers_Flagstone_Gray
f 130/239/7 128/238/7 131/236/7

f 127/237/7 131/236/7 128/238/7

v -328.144 847.429 782.417
f 132/233/7 131/236/7 127/237/7

v 362.274 847.429 1083.51
f 131/236/7 132/233/7 133/235/7

v 418.149 847.429 1180.28
f 133/235/7 132/233/7 134/234/7

v 30.7107 847.429 1403.97
f 135/2/7 134/234/7 132/233/7

usemtl M_2
v 30.7107 778.456 1403.97
f 135/216/2 136/213/2 134/229/2

f 135/216/19 132/212/19 136/213/19

v 30.7107 -41.8206 1403.97
f 136/213/19 132/212/19 137/2/19

v -328.144 -41.8206 782.417
f 138/214/19 137/2/19 132/212/19

usemtl FrontColor
v 362.274 -41.8206 1083.51
f 138/206/1 139/205/1 137/2/1

f 125/201/1 139/205/1 138/206/1

v 432.422 -41.8206 1043.01
f 139/205/1 125/201/1 140/204/1

f 140/204/1 125/201/1 124/202/1

usemtl M_2
f 140/225/19 124/2/19 131/224/19

f 129/213/19 131/224/19 124/2/19

usemtl M_3
f 129/223/2 124/220/2 126/221/2

usemtl M_2
f 140/228/2 131/227/2 139/226/2

f 133/229/2 139/226/2 131/227/2

v 418.149 778.456 1180.28
f 133/231/3 141/213/3 139/230/3

f 134/216/3 141/213/3 133/231/3

f 141/232/2 134/229/2 136/213/2

usemtl M_3
f 136/211/2 137/208/2 141/209/2

v 418.149 -41.8206 1180.28
f 142/210/2 141/209/2 137/208/2

usemtl M_2
f 142/2/3 139/230/3 141/213/3

usemtl FrontColor
f 142/207/1 137/2/1 139/205/1

usemtl M_2
f 138/2/18 132/216/18 125/215/18

f 127/217/18 125/215/18 132/216/18

g Mesh10 Component_1_4 Component_7_1 Model

usemtl FrontColor
v -213.619 -41.8206 -970.721
vn 0 -1 0
v 319.852 -41.8206 -1278.72
v 49.36 -41.8206 -515.227
f 143/1/31 144/2/31 145/3/31

usemtl M_2
v -213.619 1247.18 -970.721
f 143/4/18 146/5/18 144/6/18

f 143/7/19 145/8/19 146/9/19

v 49.36 1055.33 -515.227
f 147/10/19 146/9/19 145/8/19

usemtl Stone_Pavers_Flagstone_Gray
v 319.852 1247.18 -1278.72
f 148/11/28 146/12/28 147/13/28

usemtl M_2
f 148/14/18 144/6/18 146/5/18

vn 0.942593 2.66829e-017 0.333944
f 144/6/32 148/14/32 145/8/32

f 147/10/32 145/8/32 148/14/32

g Mesh11 Component_6_1 Component_7_1 Model

usemtl M_4
v 1152.31 -41.8206 266.09
vt -2.66454e-015 -20.2008
vn -0.0940825 0 0.995564
v -138.311 1303.48 144.124
vt -2.29785 5.96853
v -138.311 -41.8206 144.124
vt -2.29785 -20.2008
f 149/243/33 150/244/33 151/245/33

v 1152.31 1881.53 266.09
vt -2.66454e-015 17.2129
f 150/244/33 149/243/33 152/246/33

vt 4.44089e-016 -20.2008
vn 0.863348 8.54763e-019 -0.50461
v 967.261 255.854 -50.5127
vt 0.650013 -14.4103
vt 4.44089e-016 17.2129
f 149/247/34 153/248/34 152/249/34

v 967.261 -41.8206 -50.5127
vt 0.650013 -20.2008
f 153/248/34 149/247/34 154/250/34

usemtl FrontColor
vt -768.473 -5.26974e-029
vn 3.45153e-016 -1 1.77469e-016
vt -1152.7 1054.77
vt -1519.41 1056.73
f 151/251/35 154/252/35 149/253/35

v 1060.81 -41.8206 -464.663
vt -840.808 1342.86
f 151/251/35 155/254/35 154/252/35

v 967.449 -41.8206 -624.397
vt -655.795 1341.88
f 151/251/35 156/255/35 155/254/35

v 968.027 -41.8206 -743.303
vt -553.107 1401.83
f 151/251/35 157/256/35 156/255/35

v 577.269 -41.8206 -717.757
vt -379.852 1050.65
f 151/251/35 158/257/35 157/256/35

v 385.59 -41.8206 -1045.71
vt 0 1048.63
f 158/257/35 151/251/35 159/258/35

usemtl M_4
vt 4.99764 -20.2008
vn -0.915208 -8.93933e-018 -0.402981
v 385.59 1881.53 -1045.71
vt 2.69323 17.2129
vt 2.69323 -20.2008
f 151/259/36 160/260/36 159/261/36

vt 4.99764 5.96853
f 160/260/36 151/259/36 150/262/36

usemtl M_2
vt 17.6372 5.72086
vn -0.415543 0.876547 0.242877
v 391.426 1864.14 -972.972
vt 1.63712 16.0698
vt 0.128304 16.3907
f 150/263/37 161/264/37 160/265/37

v -87.2407 1336.01 114.127
vt 17.6343 6.32117
f 161/264/37 150/263/37 162/266/37

v 1091.95 1864.14 225.562
vt 33.499 16.0698
f 162/266/37 150/263/37 163/267/37

vt 35.0011 16.3907
f 163/267/37 150/263/37 152/268/37

f 152/268/37 161/264/37 163/267/37

f 161/264/37 152/268/37 160/265/37

usemtl M_4
f 152/249/34 153/248/34 160/260/34

v 577.269 255.854 -717.757
vt 2.01993 -14.4103
f 164/269/34 160/260/34 153/248/34

vt 2.01993 -20.2008
f 158/270/34 160/260/34 164/269/34

f 160/260/34 158/270/34 159/261/34

usemtl M_10
v 728.463 255.854 -806.127
vt 2.34237 0.0031131
vn -0.50461 5.74806e-017 -0.863348
vt 4.58431 -0.994959
vt 4.58431 0.0031131
f 165/271/38 158/272/38 164/273/38

v 728.463 -41.8206 -806.127
vt 2.34237 -0.994959
f 158/272/38 165/271/38 166/274/38

v 968.027 255.854 -743.303
vt -0.828219 0.0031131
vn 0.253666 0 -0.967292
f 167/275/39 166/274/39 165/271/39

vt -0.828219 -0.994959
f 166/274/39 167/275/39 157/276/39

usemtl M_2
vt -12.8658 2.64465
vn 0.863348 9.61443e-017 -0.50461
v 1019.68 -41.8206 -654.925
vt -15.2153 -1.19444e-015
vt -12.8658 -1.19488e-015
f 167/277/40 168/278/40 157/279/40

v 1019.68 214.217 -654.925
vt -15.2153 2.27473
f 168/278/40 167/277/40 169/280/40

v 1113.04 214.217 -495.192
vt -19.4616 2.27473
f 169/280/40 167/277/40 170/281/40

v 1181.28 255.854 -378.446
vt -22.5652 2.64465
f 171/282/40 170/281/40 167/277/40

v 1181.28 -41.8206 -378.446
vt -22.5652 7.69342e-015
f 172/283/40 170/281/40 171/282/40

v 1113.04 -41.8206 -495.192
vt -19.4616 -1.19488e-015
f 170/281/40 172/283/40 173/284/40

usemtl FrontColor
vt -975.709 1404.08
vt -840.486 1403.36
f 172/285/35 155/254/35 173/286/35

f 154/252/35 155/254/35 172/285/35

v 1118.45 -41.8206 -138.882
vt -1151.76 1229.89
f 154/252/35 172/285/35 174/287/35

usemtl M_10
vt 14.7998 0.0031131
vn 0.967292 0 0.253666
vt 11.6293 -0.994959
vt 14.7998 -0.994959
f 171/288/41 174/289/41 172/290/41

v 1118.45 255.854 -138.882
vt 11.6293 0.0031131
f 174/289/41 171/288/41 175/291/41

usemtl Stone_Pavers_Flagstone_Gray
vt 13.5515 14.6259
vt 16.0097 10.9872
vt 15.9967 12.8114
f 171/292/7 153/293/7 175/294/7

vt 7.68205 14.6024
f 167/295/7 153/293/7 171/292/7

vt 5.27572 10.9443
f 167/295/7 164/296/7 153/293/7

vt 5.26276 12.7685
f 164/296/7 167/295/7 165/297/7

usemtl M_10
vt 9.38732 0.0031131
vn 0.50461 -5.75462e-017 0.863348
f 153/298/42 174/289/42 175/291/42

vt 9.38732 -0.994959
f 174/289/42 153/298/42 154/299/42

usemtl M_2
vt -30.7171 9.39073e-016
vn -0.50461 0 -0.863348
vt -32.1056 2.27473
vt -32.1056 0
f 155/300/43 170/301/43 173/302/43

v 1060.81 214.217 -464.663
vt -30.7171 2.27473
f 170/301/43 155/300/43 176/303/43

usemtl _Black_
vt -662.939 2.444e-012
vn 0.863348 -1.7471e-015 -0.50461
vt -847.955 256.037
vt -847.955 2.44395e-012
f 156/304/44 176/305/44 155/306/44

v 967.449 214.217 -624.397
vt -662.939 256.037
f 176/305/44 156/304/44 177/307/44

usemtl M_2
vt 32.1056 7.37883e-016
vn 0.50461 -1.25207e-016 0.863348
vt 30.7171 2.27473
vt 30.7171 1.67696e-015
f 168/308/45 177/309/45 156/310/45

vt 32.1056 2.27473
f 177/309/45 168/308/45 169/311/45

vt -19.2902 12.468
vn -1.50835e-015 -1 8.81604e-016
vt -15.0513 11.9217
vt -15.0439 12.4592
f 170/312/46 177/313/46 169/314/46

vt -19.2976 11.9305
f 177/313/46 170/312/46 176/315/46

usemtl FrontColor
vt -655.472 1402.38
f 156/255/35 157/256/35 168/316/35

vt -378.918 1225.77
f 157/256/35 158/257/35 166/317/35

usemtl M_2
v 403.685 1838.28 -980.137
vt 1.63712 10.2321
vn -0.756765 -0.481316 0.442314
vt 33.499 10.4941
vt 1.63712 10.4941
f 178/318/47 163/319/47 161/320/47

v 1104.2 1838.28 218.397
vt 33.499 10.2321
f 163/319/47 178/318/47 179/321/47

usemtl M_7
vt 5.31816 4.36321
vt -2.58507 4.36321
v -74.9821 1310.15 106.962
vt 1.38296 -3.60684
f 179/322/37 178/323/37 180/324/37

usemtl M_2
vt 19.5959 15.0825
vn 0.831707 0.258073 0.491592
vt -7.18827 9.988
vt 19.8806 14.8447
f 161/325/48 180/326/48 178/327/48

vt -7.47299 10.2258
f 180/326/48 161/325/48 162/328/48

vt -36.6252 18.1583
vn -0.0235911 0.256546 -0.966244
vt -9.91713 13.066
vt -9.63185 13.3037
f 163/329/49 180/330/49 162/331/49

vt -36.9105 17.9207
f 180/330/49 163/329/49 179/332/49

